HIERARCHY
ROOT Hips
{
	OFFSET -3.958830 18.904000 13.208200
	CHANNELS 6 Xposition Yposition Zposition Zrotation Yrotation Xrotation 
	JOINT LHipJoint
	{
		OFFSET 0.000000 0.000000 0.000000
		CHANNELS 3 Zrotation Yrotation Xrotation
		JOINT LeftUpLeg
		{
			OFFSET 1.800000 -1.400000 0.085000
			CHANNELS 3 Zrotation Yrotation Xrotation
			JOINT LeftLeg
			{
				OFFSET 2.215000 -6.000000 0.000000
				CHANNELS 3 Zrotation Yrotation Xrotation
				JOINT LeftFoot
				{
					OFFSET 2.500000 -6.900000 0.000000
					CHANNELS 3 Zrotation Yrotation Xrotation
					JOINT LeftToeBase
					{
						OFFSET 0.200000 -0.500000 1.950000
						CHANNELS 3 Zrotation Yrotation Xrotation
						End Site
						{
							OFFSET 0.000000 0.000000 0.000000
						}
					}
				}
			}
		}
	}
	JOINT RHipJoint
	{
		OFFSET 0.000000 0.000000 0.000000
		CHANNELS 3 Zrotation Yrotation Xrotation
		JOINT RightUpLeg
		{
			OFFSET -1.800000 -1.400000 0.085000
			CHANNELS 3 Zrotation Yrotation Xrotation
			JOINT RightLeg
			{
				OFFSET -2.215000 -6.000000 0.000000
				CHANNELS 3 Zrotation Yrotation Xrotation
				JOINT RightFoot
				{
					OFFSET -2.500000 -6.900000 0.000000
					CHANNELS 3 Zrotation Yrotation Xrotation
					JOINT RightToeBase
					{
						OFFSET -0.200000 -0.500000 1.950000
						CHANNELS 3 Zrotation Yrotation Xrotation
						End Site
						{
							OFFSET 0.000000 0.000000 0.000000
						}
					}
				}
			}
		}
	}
	JOINT LowerBack
	{
		OFFSET 0.000000 0.000000 0.000000
		CHANNELS 3 Zrotation Yrotation Xrotation
		JOINT Spine
		{
			OFFSET -0.087000 1.940000 -0.288900
			CHANNELS 3 Zrotation Yrotation Xrotation
			JOINT Spine1
			{
				OFFSET 0.000000 1.950000 0.060000
				CHANNELS 3 Zrotation Yrotation Xrotation
				JOINT Neck
				{
					OFFSET 0.000000 0.000000 0.000000
					CHANNELS 3 Zrotation Yrotation Xrotation
					JOINT Neck1
					{
						OFFSET 0.000000 1.600000 0.340000
						CHANNELS 3 Zrotation Yrotation Xrotation
						JOINT Head
						{
							OFFSET 0.000000 1.667000 -0.240000
							CHANNELS 3 Zrotation Yrotation Xrotation
							End Site
							{
								OFFSET 0.000000 0.000000 0.000000
							}
						}
					}
				}
				JOINT LeftShoulder
				{
					OFFSET 0.000000 0.000000 0.000000
					CHANNELS 3 Zrotation Yrotation Xrotation
					JOINT LeftArm
					{
						OFFSET 2.700000 1.550000 -0.730000
						CHANNELS 3 Zrotation Yrotation Xrotation
						JOINT LeftForeArm
						{
							OFFSET 5.450000 0.000000 0.000000
							CHANNELS 3 Zrotation Yrotation Xrotation
							JOINT LeftHand
							{
								OFFSET 3.450000 0.000000 0.000000
								CHANNELS 3 Zrotation Yrotation Xrotation
								JOINT LeftHandIndex1
								{
									OFFSET 0.750000 0.000000 0.000000
									CHANNELS 3 Zrotation Yrotation Xrotation
									End Site
									{
										OFFSET 0.000000 0.000000 0.000000
									}
								}
							}
						}
					}
				}
				JOINT RightShoulder
				{
					OFFSET 0.000000 0.000000 0.000000
					CHANNELS 3 Zrotation Yrotation Xrotation
					JOINT RightArm
					{
						OFFSET -2.700000 1.550000 -0.730000
						CHANNELS 3 Zrotation Yrotation Xrotation
						JOINT RightForeArm
						{
							OFFSET -5.450000 0.000000 0.000000
							CHANNELS 3 Zrotation Yrotation Xrotation
							JOINT RightHand
							{
								OFFSET -3.450000 0.000000 0.000000
								CHANNELS 3 Zrotation Yrotation Xrotation
								JOINT RightHandIndex1
								{
									OFFSET -0.750000 0.000000 0.000000
									CHANNELS 3 Zrotation Yrotation Xrotation
									End Site
									{
										OFFSET 0.000000 0.000000 0.000000
									}
								}
							}
						}
					}
				}
			}
		}
	}
}
MOTION
Frames: 10
Frame Time: 0.016667
-0.781440 16.761600 -2.721250 -1.098950 27.020410 -4.716973 -15.254987 13.946467 3.812781 8.396678 -0.034933 -34.059886 -0.970816 6.600798 26.106296 0.459659 3.749046 3.050602 0.418060 0.138720 0.445990 17.743353 -11.242984 2.932799 -10.354320 6.747699 -14.001843 8.421443 -6.488858 26.920663 -0.450870 -3.985601 3.067460 -0.337090 -0.549480 0.124410 -3.819422 -1.442205 -8.345428 31.771531 -1.024667 39.848697 -15.578908 14.175114 -17.861068 6.483686 -1.614094 -12.857538 2.448655 -11.717761 56.529112 -9.480760 -8.739780 -14.715730 -26.126316 8.574139 -1.446452 -51.976663 29.778160 -16.705095 -10.144434 -8.322816 -1.246753 -2.820669 2.838781 0.469750 -0.558880 0.443590 0.163650 8.169085 8.893236 10.944310 51.127415 12.199450 -9.731065 -118.838535 31.746623 -64.991404 2.722173 -1.518833 0.353690 -0.280450 -0.429500 0.002140 
-0.749840 16.705870 -2.720890 -1.400443 28.175327 -4.388929 -15.275471 14.131167 3.632579 7.752975 -0.271284 -31.130358 -0.887228 5.580866 21.483345 0.356789 3.042139 3.344341 0.409320 0.120380 0.437710 17.678239 -11.195069 3.057569 -11.103397 7.173238 -14.654816 10.036671 -7.024041 27.590832 -0.464817 -4.205387 2.984971 -0.324960 -0.512700 0.116920 -3.754590 -1.743884 -8.319499 31.550934 -0.913777 38.841749 -14.427776 14.065240 -17.622228 6.837455 -1.903775 -12.754763 1.618656 -11.668534 55.843233 -9.516940 -9.156990 -14.836920 -27.127807 8.361699 -1.669253 -51.900218 29.377781 -16.094340 -8.047779 -7.601427 -1.242469 -2.887555 2.808567 0.462510 -0.538990 0.412720 0.165430 8.528017 9.428713 10.582559 48.309414 13.824303 -9.161099 -117.759715 27.785018 -57.452631 2.709047 -1.610903 0.326140 -0.251910 -0.414470 0.000030 
-0.743990 16.687750 -2.736990 -1.252772 29.098880 -4.252079 -15.346398 14.331895 3.563230 7.101214 -0.468142 -28.744809 -0.972450 4.875278 17.585215 0.267943 2.600078 3.534520 0.377130 0.068760 0.417870 17.581513 -11.065463 3.099074 -11.774694 7.359915 -14.861036 11.068950 -7.333675 27.823279 -0.467849 -4.309129 2.947974 -0.336380 -0.491550 0.099960 -3.522615 -2.309355 -8.330156 29.927050 -1.121577 39.634501 -13.374919 13.952271 -17.925224 7.213997 -2.282042 -13.161884 0.802498 -11.266711 56.140207 -8.736360 -9.459400 -15.918400 -28.082165 7.829101 -1.504528 -52.441054 29.172025 -16.355317 -7.242777 -9.232499 -1.216036 -2.898536 2.809465 0.495970 -0.540340 0.389230 0.147550 8.915478 10.664221 10.506012 45.812639 14.609509 -9.526158 -116.482332 25.639267 -52.755708 2.697323 -1.619806 0.283920 -0.222830 -0.376830 -0.021160 
-0.755570 16.696060 -2.761230 -0.893701 29.515219 -4.138920 -15.429676 14.506263 3.557752 6.462462 -0.628833 -27.391332 -0.829644 4.493462 15.458041 0.222702 2.409982 3.629488 0.344740 0.008150 0.417830 17.491685 -10.928502 3.077394 -12.218100 7.281938 -14.901173 11.426678 -7.390201 27.706596 -0.451600 -4.294559 2.952266 -0.360070 -0.482350 0.083280 -3.241545 -2.908420 -8.352497 27.639426 -1.357813 41.319233 -12.025646 13.938852 -17.847508 7.423443 -2.823338 -13.849258 -0.661461 -10.605659 56.080978 -7.571460 -9.770260 -17.081740 -28.466330 6.851194 -0.865426 -53.882143 28.271413 -17.306243 -7.352624 -12.773120 -1.157065 -2.880446 2.839231 0.532770 -0.549660 0.372930 0.123960 9.231050 12.554187 10.587554 43.685364 14.949460 -10.528657 -115.770652 24.442846 -50.606586 2.701197 -1.608952 0.245270 -0.207360 -0.353890 -0.045810 
-0.772550 16.718720 -2.792540 -0.564610 29.345481 -4.262985 -15.496914 14.621222 3.548509 6.140347 -0.629306 -26.840152 -0.702116 4.404278 14.906383 0.182774 2.402109 3.636570 0.307730 -0.060130 0.417280 17.431875 -10.852504 3.017687 -12.260680 7.053649 -14.695536 11.138437 -7.247942 27.386905 -0.434442 -4.206231 2.975904 -0.393710 -0.481910 0.091540 -3.002799 -3.293502 -8.336436 25.208353 -1.296784 43.609872 -10.777196 14.125100 -17.480122 7.595715 -2.620798 -14.261178 -0.453564 -10.589049 55.137449 -6.318600 -9.743480 -19.690220 -27.534034 6.192688 -0.488649 -55.955494 26.137915 -17.955265 -6.805750 -14.578044 -1.198367 -2.924107 2.827886 0.582260 -0.558720 0.367820 0.089550 8.154020 13.603798 10.728360 43.086280 15.613361 -11.612420 -114.716772 23.952518 -49.774740 2.689822 -1.573479 0.215180 -0.207660 -0.314560 -0.080290 
-0.785520 16.747690 -2.830460 -0.847355 28.632577 -4.021660 -15.541229 14.625702 3.578254 6.553328 -0.485507 -27.839785 -1.002414 4.571237 15.224876 0.165524 2.498501 3.599048 0.273800 -0.099890 0.407590 17.420871 -10.763493 2.968771 -11.493377 6.953440 -15.016637 10.384675 -6.885321 26.971854 -0.397051 -4.027949 3.044938 -0.409920 -0.462800 0.098510 -2.841375 -3.511685 -8.334629 23.588702 -0.861130 45.359259 -9.145290 14.788864 -16.708968 7.455309 -2.164041 -14.183712 -0.265023 -10.843663 52.633063 -5.128200 -9.707060 -21.850080 -25.681088 5.669833 -0.322950 -58.653186 23.045897 -17.950746 -6.002984 -13.623924 -1.318112 -3.033356 2.763526 0.598160 -0.543710 0.358780 0.071870 6.769119 14.114480 10.505530 42.692594 16.289839 -12.699208 -113.869124 23.052373 -48.574078 2.679763 -1.571921 0.190540 -0.200630 -0.291930 -0.095880 
-0.780150 16.771280 -2.875700 -2.029401 27.827966 -4.194802 -15.542348 14.558185 3.582108 7.572838 -0.084753 -29.275891 -1.086510 4.799448 16.000518 0.160569 2.662690 3.540459 0.250290 -0.122260 0.404360 17.461911 -10.707709 2.953294 -10.165506 6.906270 -14.971065 9.808013 -6.488560 26.027836 -0.359091 -3.840579 3.125848 -0.410980 -0.431700 0.107480 -2.831589 -3.492397 -8.316223 24.010458 -0.913103 46.664886 -8.514025 15.351143 -15.167627 7.236894 -1.302702 -13.971138 0.426823 -11.624479 48.308488 -4.746220 -9.492000 -22.872220 -23.904478 4.603272 0.313102 -59.804899 21.560911 -18.639187 -9.327313 -15.051265 -1.240280 -3.078613 2.773693 0.585590 -0.507520 0.340310 0.067670 5.450419 14.423743 10.157129 41.302854 16.985660 -13.492034 -113.421281 21.961949 -47.276836 2.668690 -1.604141 0.169140 -0.193790 -0.283750 -0.104430 
-0.779950 16.791520 -2.920940 -2.817424 26.570637 -4.268883 -15.559359 14.458567 3.584523 8.472923 0.438604 -31.003017 -1.167041 5.233130 17.747875 0.161651 2.948054 3.415003 0.236970 -0.136010 0.421510 17.497846 -10.663623 2.916234 -9.104762 6.874679 -14.818245 9.075741 -6.028308 24.979307 -0.314138 -3.660505 3.195150 -0.408490 -0.416730 0.129090 -2.772575 -3.379704 -8.273625 23.727761 -0.078954 48.426996 -7.877409 16.696180 -14.012755 6.850180 0.374985 -13.778428 2.940871 -13.066616 43.071570 -4.822150 -8.906230 -23.125080 -22.726104 3.688011 1.203271 -59.402229 22.085059 -20.074094 -16.443678 -19.405070 -0.570203 -3.077079 2.863236 0.562300 -0.461040 0.320550 0.045210 4.797059 14.245771 9.581777 38.889455 17.504030 -14.001996 -113.312390 20.303329 -44.977837 2.659868 -1.663636 0.162260 -0.212690 -0.272290 -0.126030 
-0.779860 16.803550 -2.967650 -3.722077 24.781415 -4.210241 -15.577564 14.333451 3.599909 9.505520 1.143291 -33.003877 -1.041347 5.741767 19.720444 0.169607 3.307539 3.266936 0.232390 -0.139670 0.449250 17.545411 -10.578414 2.897336 -8.044558 7.054330 -14.925781 8.505587 -5.606052 24.148503 -0.282539 -3.493841 3.253661 -0.395930 -0.403100 0.142690 -2.716592 -3.260826 -8.252995 23.497616 0.988750 50.085086 -7.454055 18.279515 -13.309572 6.551361 1.693783 -13.528754 5.066001 -14.054279 38.912091 -4.815900 -8.232980 -23.666760 -21.881673 3.459488 1.622775 -58.604257 22.721066 -20.800698 -23.072150 -21.950320 0.337530 -3.084023 2.920615 0.551100 -0.426180 0.313750 0.030960 4.263584 13.832570 9.048382 37.167233 17.886365 -14.453655 -113.048850 19.020572 -43.003216 2.660037 -1.703037 0.146960 -0.213020 -0.271860 -0.145200 
-0.778150 16.808620 -3.012140 -4.522903 22.976705 -4.074368 -15.599292 14.215766 3.626469 10.242749 1.838986 -34.991738 -0.533010 6.191058 21.760056 0.165249 3.683888 3.107698 0.212150 -0.166900 0.461750 17.589701 -10.480264 2.877048 -7.181158 7.174424 -14.970560 8.127295 -5.249646 23.139314 -0.251695 -3.331196 3.298611 -0.395810 -0.392430 0.157020 -2.658388 -3.188961 -8.249247 23.058403 2.108014 51.542679 -6.932524 19.797769 -12.595221 6.216648 2.629587 -13.454488 6.514303 -14.952847 35.933348 -4.178840 -8.110940 -24.285860 -21.102865 3.043332 2.047698 -58.312026 23.070241 -21.316657 -28.594327 -23.737594 1.240598 -3.105581 2.963222 0.556470 -0.401850 0.305490 0.003220 4.006229 13.769346 8.716564 35.585220 17.564416 -15.137684 -113.180559 18.446893 -42.303174 2.653103 -1.715879 0.126970 -0.215990 -0.249410 -0.168730 
